<svg width="17" height="14" viewBox="0 0 17 14" fill="none" xmlns="http://www.w3.org/2000/svg">
<path d="M12.1823 0H0.943424C0.423201 0 0 0.4232 0 0.943391V7.68607C0 8.20626 0.423201 8.62949 0.943424 8.62949H1.67219V11.1396C1.67219 11.2995 1.76846 11.4436 1.91617 11.5048C1.96505 11.5251 2.01643 11.5349 2.06734 11.5349C2.17022 11.5349 2.27127 11.4947 2.34689 11.4191L5.13652 8.62952H5.69621C5.9145 8.62952 6.09143 8.45259 6.09143 8.2343C6.09143 8.01597 5.91444 7.83904 5.69621 7.83904C5.69621 7.83904 4.95373 7.83957 4.94598 7.84035C4.85396 7.8466 4.76365 7.8845 4.6933 7.95482L2.46263 10.1855C2.46263 10.1855 2.46195 8.2093 2.46067 8.19906C2.44284 7.99729 2.27359 7.83904 2.06721 7.83904H0.943424C0.859065 7.83904 0.790478 7.77042 0.790478 7.6861V0.943391C0.790478 0.859032 0.859098 0.790446 0.943424 0.790446H12.1823C12.2666 0.790446 12.3352 0.859065 12.3352 0.943391V3.53027C12.3352 3.74856 12.5122 3.92549 12.7304 3.92549C12.9487 3.92549 13.1257 3.74856 13.1257 3.53027V0.943391C13.1257 0.4232 12.7025 0 12.1823 0Z" fill="white"/>
<path d="M15.811 4.83408H7.94397C7.42378 4.83408 7.00055 5.25728 7.00055 5.7775V10.3773C7.00055 10.8975 7.42375 11.3207 7.94397 11.3207H12.8692L14.8646 13.3162C14.9402 13.3918 15.0413 13.4319 15.1441 13.4319C15.1951 13.4319 15.2464 13.4221 15.2953 13.4018C15.443 13.3406 15.5393 13.1965 15.5393 13.0367V11.3207H15.8109C16.3311 11.3207 16.7544 10.8975 16.7544 10.3773V5.77747C16.7544 5.25728 16.3312 4.83408 15.811 4.83408ZM15.9639 10.3773C15.9639 10.4616 15.8953 10.5303 15.811 10.5303H15.1442C14.9363 10.5303 14.7662 10.691 14.7506 10.895C14.7495 10.9036 14.7489 12.0825 14.7489 12.0825L13.3139 10.6475C13.3124 10.646 13.3108 10.6446 13.3093 10.643C13.3037 10.6375 13.2983 10.6328 13.2933 10.6285C13.2237 10.5675 13.1329 10.5302 13.0331 10.5302H7.94397C7.85961 10.5302 7.79103 10.4616 7.79103 10.3773V5.77747C7.79103 5.69311 7.85965 5.62452 7.94397 5.62452H15.811C15.8953 5.62452 15.9639 5.69314 15.9639 5.77747V10.3773Z" fill="white"/>
<path d="M11.8785 7.68234C11.6603 7.68234 11.4833 7.8594 11.4833 8.07757C11.4833 8.29573 11.6603 8.47279 11.8785 8.47279C12.0967 8.47279 12.2737 8.29573 12.2737 8.07757C12.2737 7.8594 12.0967 7.68234 11.8785 7.68234Z" fill="white"/>
<path d="M10.1597 2.61307H2.96657C2.74831 2.61307 2.57135 2.79 2.57135 3.00829C2.57135 3.22658 2.74835 3.40351 2.96657 3.40351H10.1597C10.378 3.40351 10.5549 3.22658 10.5549 3.00829C10.5549 2.79 10.378 2.61307 10.1597 2.61307Z" fill="white"/>
<path d="M5.69645 5.22601H2.96657C2.74831 5.22601 2.57135 5.40294 2.57135 5.62124C2.57135 5.83953 2.74835 6.01646 2.96657 6.01646H5.69645C5.91474 6.01646 6.09167 5.83953 6.09167 5.62124C6.09167 5.40294 5.91471 5.22601 5.69645 5.22601Z" fill="white"/>
<path d="M10.0396 7.68225C9.82144 7.68225 9.64435 7.85931 9.64435 8.07747C9.64435 8.29564 9.82144 8.4727 10.0396 8.4727C10.2578 8.4727 10.4348 8.29564 10.4348 8.07747C10.4348 7.85931 10.2578 7.68225 10.0396 7.68225Z" fill="white"/>
<path d="M13.7124 7.68225C13.4943 7.68225 13.3172 7.85931 13.3172 8.07747C13.3172 8.29564 13.4943 8.4727 13.7124 8.4727C13.9306 8.4727 14.1076 8.29564 14.1076 8.07747C14.1076 7.85931 13.9306 7.68225 13.7124 7.68225Z" fill="white"/>
</svg>
