<svg width="99" height="16" viewBox="0 0 99 16" fill="none" xmlns="http://www.w3.org/2000/svg">
<g clip-path="url(#clip0_47_162)">
<path d="M10.8732 12.4377H1.6428C1.20787 12.4352 0.791457 12.2613 0.48391 11.9538C0.176362 11.6462 0.00248462 11.2298 0 10.7949L0 1.6428C0.00248462 1.20787 0.176362 0.791457 0.48391 0.48391C0.791457 0.176362 1.20787 0.00248462 1.6428 0H10.8732C11.3081 0.00248462 11.7245 0.176362 12.0321 0.48391C12.3396 0.791457 12.5135 1.20787 12.516 1.6428V10.8732C12.516 11.7337 11.7337 12.4377 10.8732 12.4377Z" fill="#FF0000"/>
<path d="M8.68287 7.66598C8.42815 7.73468 8.16388 7.76112 7.9006 7.74424C7.66598 9.074 6.72719 10.1691 5.39744 10.4039C3.67655 10.7951 1.95549 9.62165 1.56453 7.90076C1.40071 7.04111 1.57878 6.15146 2.06085 5.42108C2.54292 4.69071 3.29094 4.17724 4.14578 3.98992C4.64031 3.89644 5.15007 3.92328 5.63205 4.06818C5.82959 3.5138 6.20389 3.03972 6.69732 2.71895C7.19074 2.39817 7.77593 2.24849 8.36278 2.29295C8.94963 2.33741 9.50558 2.57354 9.94505 2.96499C10.3845 3.35644 10.6831 3.8815 10.7949 4.45932C10.9362 5.16443 10.7935 5.89682 10.3979 6.49734C10.0023 7.09786 9.38566 7.51801 8.68202 7.66649L8.68287 7.66598ZM8.21347 3.12906C7.96602 3.12578 7.72042 3.17211 7.49116 3.2653C7.26191 3.35849 7.05364 3.49666 6.87865 3.67165C6.70366 3.84664 6.56549 4.0549 6.4723 4.28416C6.37911 4.51342 6.33279 4.75902 6.33606 5.00647V5.31934C5.90641 5.00236 5.38356 4.83723 4.84978 4.84995C4.37019 4.84998 3.90138 4.99223 3.50263 5.2587C3.10388 5.52517 2.7931 5.9039 2.60959 6.34699C2.42608 6.79009 2.37808 7.27765 2.47167 7.74802C2.56525 8.21839 2.79622 8.65045 3.13535 8.98957C3.47449 9.32868 3.90656 9.55961 4.37694 9.65316C4.84732 9.74671 5.33488 9.69868 5.77796 9.51514C6.22104 9.3316 6.59975 9.0208 6.86619 8.62203C7.13264 8.22326 7.27485 7.75444 7.27485 7.27484C7.28745 7.06334 7.26092 6.85132 7.19659 6.64943C7.50516 6.83466 7.85415 6.94204 8.21347 6.96231C8.70935 6.95557 9.18303 6.75556 9.53367 6.40486C9.88431 6.05415 10.0842 5.58044 10.0909 5.08456C10.0909 4.06768 9.23035 3.12889 8.21347 3.12889V3.12906Z" fill="white"/>
<path d="M6.88374 7.27484C6.88561 7.54244 6.83427 7.80774 6.73273 8.05533C6.63118 8.30292 6.48145 8.52786 6.29222 8.71709C6.103 8.90631 5.87806 9.05605 5.63047 9.1576C5.38288 9.25914 5.11757 9.31047 4.84998 9.30861V7.27484H6.88374Z" fill="white"/>
<path d="M17.2366 12.4264H15.3817V15.9214H16.0629V14.3809H17.164V13.794H16.0629V13.0141H17.2366V12.4264ZM19.7839 12.3478C18.6835 12.3478 17.9185 13.1128 17.9185 14.1765C17.9185 15.2402 18.6829 16 19.7839 16C20.885 16 21.6493 15.2394 21.6493 14.1765C21.6493 13.1137 20.8836 12.3478 19.7839 12.3478ZM19.7839 15.3817C19.1027 15.3817 18.6207 14.8839 18.6207 14.1765C18.6207 13.4691 19.1027 12.9661 19.7839 12.9661C20.4651 12.9661 20.9472 13.4691 20.9472 14.1765C20.9472 14.8839 20.4644 15.3817 19.7839 15.3817ZM22.5391 12.4264V15.9214H23.2203V14.5171H23.3048L24.2372 15.9214H25.086L23.9961 14.449C24.1331 14.4263 24.2635 14.3744 24.3786 14.2969C24.5104 14.2052 24.6169 14.0817 24.6883 13.938C24.7598 13.7942 24.7938 13.6348 24.7872 13.4744C24.7921 13.3258 24.7635 13.1781 24.7037 13.042C24.6438 12.906 24.5542 12.7851 24.4414 12.6884C24.2789 12.5521 24.0326 12.4264 23.5506 12.4264H22.5391ZM23.2203 12.9818H23.4246C23.5504 12.9818 24.0849 12.987 24.0849 13.5058C24.0849 14.0193 23.5452 14.035 23.4142 14.035H23.2206L23.2203 12.9818ZM28.7746 12.4264V15.9214H29.4558V14.6271H29.8953C30.0561 14.6378 30.2174 14.6159 30.3695 14.5628C30.5217 14.5097 30.6616 14.4264 30.7808 14.318C30.973 14.1041 31.0758 13.8247 31.0682 13.5372C31.0723 13.3794 31.0429 13.2225 30.9817 13.077C30.9206 12.9314 30.8293 12.8005 30.7137 12.6929C30.457 12.4676 30.1845 12.4257 29.7915 12.4257L28.7746 12.4264ZM29.4558 13.0132H29.6916C29.8598 12.9995 30.0281 13.0379 30.1737 13.1233C30.2355 13.1692 30.2854 13.2293 30.3192 13.2986C30.353 13.3678 30.3697 13.4442 30.3679 13.5212C30.369 13.5991 30.3526 13.6763 30.32 13.7471C30.2873 13.8179 30.2392 13.8805 30.1792 13.9302C30.0474 14.0161 29.8905 14.0549 29.7338 14.0403H29.4561L29.4558 13.0132ZM33.5324 12.3478C32.4321 12.3478 31.667 13.1128 31.667 14.1765C31.667 15.2402 32.4324 16 33.5328 16C34.6332 16 35.3982 15.2394 35.3982 14.1765C35.3982 13.1137 34.6332 12.3478 33.5328 12.3478H33.5324ZM33.5324 15.3817C32.8513 15.3817 32.3692 14.8839 32.3692 14.1765C32.3692 13.4691 32.8513 12.9661 33.5324 12.9661C34.2136 12.9661 34.6957 13.4691 34.6957 14.1765C34.6957 14.8839 34.214 15.3817 33.5328 15.3817H33.5324ZM38.4894 13.7049L39.2548 15.9214H39.7683L41.0625 12.4264H40.3394L39.501 14.8058L38.6941 12.3954H38.3168L37.4627 14.8058L36.682 12.4269H35.9589L37.1745 15.9214H37.688L38.4894 13.7049ZM43.6717 12.4264H41.7329V15.9214H43.6717V15.3345H42.4141V14.3809H43.6193V13.794H42.4141V13.0141H43.6717V12.4264ZM44.5939 12.4264V15.9214H45.2751V14.5171H45.3596L46.292 15.9214H47.1408L46.0511 14.449C46.188 14.4263 46.3185 14.3744 46.4336 14.2969C46.5654 14.2052 46.672 14.0817 46.7435 13.9379C46.8149 13.7941 46.8489 13.6346 46.8423 13.4742C46.8472 13.3256 46.8187 13.1779 46.7588 13.0419C46.6989 12.9058 46.6093 12.785 46.4965 12.6882C46.3341 12.552 46.0878 12.4262 45.6057 12.4262L44.5939 12.4264ZM45.2751 12.9818H45.4795C45.6052 12.9818 46.1397 12.987 46.1397 13.5058C46.1397 14.0193 45.6 14.035 45.469 14.035H45.2751V12.9818ZM50.8294 12.4264V15.9214H52.0031C52.3233 15.9411 52.6393 15.8402 52.8887 15.6384C52.9858 15.5484 53.0626 15.4388 53.1141 15.3169C53.1656 15.1949 53.1906 15.0634 53.1874 14.9311C53.1919 14.8105 53.172 14.6904 53.1287 14.5778C53.0855 14.4652 53.0199 14.3626 52.9359 14.2761C52.8107 14.1566 52.6509 14.0797 52.4795 14.0563C52.6027 13.9902 52.7049 13.8908 52.7743 13.7694C52.8438 13.6481 52.8778 13.5096 52.8725 13.3699C52.8764 13.2327 52.8493 13.0963 52.793 12.9711C52.7367 12.8458 52.6528 12.735 52.5476 12.6468C52.2947 12.4818 51.9946 12.4046 51.6935 12.4271L50.8294 12.4264ZM51.5106 12.9818H51.7097C51.9874 12.9818 52.2337 13.1023 52.2337 13.4213C52.2337 13.8667 51.8093 13.8777 51.7045 13.8777H51.5108L51.5106 12.9818ZM51.5106 14.4017H51.7621C51.9206 14.3906 52.0796 14.4136 52.2285 14.4693C52.3065 14.5019 52.3728 14.5574 52.4187 14.6285C52.4645 14.6996 52.4877 14.7829 52.4852 14.8675C52.4889 14.9478 52.471 15.0277 52.4334 15.0987C52.3958 15.1698 52.3399 15.2295 52.2714 15.2717C52.1268 15.343 51.966 15.3755 51.805 15.366H51.5108L51.5106 14.4017ZM54.0782 12.4262V15.9214H54.7593V12.4264L54.0782 12.4262Z" fill="black"/>
<path d="M17.8769 10.1294C18.8595 10.143 19.8079 9.76884 20.5165 9.08804C21.1867 8.41784 21.4135 7.61359 21.4135 6.70624C21.4135 5.96387 21.2589 4.97403 20.4546 4.20072C19.5679 3.34492 18.4131 3.25212 17.7223 3.25212H15.3817V10.1294H17.8769ZM17.1655 4.76781H17.5985C18.0419 4.76781 18.5987 4.80906 19.0214 5.20087C19.3617 5.5205 19.5576 6.06697 19.5576 6.70624C19.5576 7.46924 19.2586 7.9023 19.0317 8.11882C18.5678 8.5725 17.9594 8.61374 17.5264 8.61374H17.1655V4.76781ZM22.1868 10.1294H23.8366V8.16007C23.8366 7.91261 23.8572 7.428 24.2084 7.10836C24.419 6.93366 24.688 6.84524 24.9611 6.86091C25.2084 6.85453 25.4533 6.91131 25.6726 7.02588V5.46895C25.456 5.45864 25.3839 5.44832 25.3426 5.44832C25.0464 5.43888 24.7524 5.50275 24.4868 5.63426C24.2087 5.77413 23.9816 5.99772 23.8372 6.27353V5.52084H22.1868V10.1294ZM26.1977 5.5205V10.1294H27.8475V5.5205H26.1977ZM26.0946 3.60269C26.0941 3.7247 26.1178 3.8456 26.1642 3.95842C26.2107 4.07124 26.279 4.17374 26.3653 4.26001C26.4516 4.34629 26.5541 4.41462 26.6669 4.46107C26.7797 4.50753 26.9006 4.53118 27.0226 4.53066C27.1446 4.53118 27.2655 4.50753 27.3783 4.46107C27.4912 4.41462 27.5937 4.34629 27.6799 4.26001C27.7662 4.17374 27.8345 4.07124 27.881 3.95842C27.9274 3.8456 27.9511 3.7247 27.9506 3.60269C27.9511 3.48068 27.9274 3.35978 27.881 3.24696C27.8345 3.13415 27.7662 3.03164 27.6799 2.94537C27.5937 2.8591 27.4912 2.79076 27.3783 2.74431C27.2655 2.69786 27.1446 2.6742 27.0226 2.67472C26.9006 2.6742 26.7797 2.69786 26.6669 2.74431C26.5541 2.79076 26.4516 2.8591 26.3653 2.94537C26.279 3.03164 26.2107 3.13415 26.1642 3.24696C26.1178 3.35978 26.0941 3.48068 26.0946 3.60269ZM28.7653 2.61285V10.1294H30.415V2.61285H28.7653ZM31.3327 2.61285V10.1294H32.9824V2.61285H31.3327ZM38.7467 10.1294C39.7292 10.143 40.6776 9.76884 41.3862 9.08804C42.0564 8.41784 42.2833 7.61359 42.2833 6.70624C42.2833 5.96387 42.1286 4.97403 41.3244 4.20072C40.4376 3.34492 39.2828 3.25212 38.592 3.25212H36.2508V10.1294H38.7467ZM38.0352 4.76781H38.4683C38.9116 4.76781 39.4684 4.80906 39.8912 5.20087C40.2314 5.5205 40.4273 6.06697 40.4273 6.70624C40.4273 7.46924 40.1283 7.9023 39.9015 8.11882C39.4375 8.5725 38.8292 8.61374 38.3961 8.61374H38.0352V4.76781ZM45.6446 6.76811C45.9166 6.77682 46.1764 6.88293 46.3767 7.06712C46.5743 7.26873 46.6885 7.53758 46.6963 7.81981C46.6952 7.95709 46.6663 8.09273 46.6114 8.21854C46.5564 8.34436 46.4766 8.45775 46.3767 8.55188C46.1827 8.7471 45.9198 8.85821 45.6446 8.8612C45.366 8.86024 45.0991 8.74903 44.9022 8.55188C44.7047 8.35857 44.5901 8.09606 44.5826 7.81981C44.5835 7.67946 44.6123 7.54069 44.6671 7.4115C44.722 7.28231 44.8019 7.16527 44.9022 7.06712C45.1052 6.88117 45.3687 6.77496 45.6439 6.76811H45.6446ZM48.4079 7.81981C48.4129 7.50415 48.3522 7.19089 48.2298 6.89991C48.1073 6.60893 47.9257 6.34658 47.6964 6.12951C47.1352 5.61542 46.395 5.34154 45.6343 5.36651C44.8765 5.34061 44.1392 5.61481 43.5824 6.12951C43.3532 6.34658 43.1716 6.60893 43.0491 6.89991C42.9266 7.19089 42.866 7.50415 42.871 7.81981C42.8657 8.13705 42.9262 8.45194 43.0485 8.74469C43.1708 9.03745 43.3524 9.30173 43.5818 9.52092C44.221 10.1501 44.9634 10.2841 45.6336 10.2841C46.376 10.2841 47.0873 10.1191 47.6958 9.52109C47.9253 9.30194 48.107 9.03766 48.2295 8.74487C48.3519 8.45208 48.4124 8.13713 48.4072 7.81981H48.4079ZM48.5832 5.52101L50.954 10.1294H52.0675L53.1708 7.59297L54.3256 10.1294H55.4392L57.8519 5.5205H56.0166L54.8618 8.02603L53.6967 5.5205H52.6862L51.5211 7.95453L50.4281 5.5205L48.5832 5.52101ZM58.2128 10.1294H59.8625V7.65484C59.8556 7.38562 59.9515 7.12388 60.1306 6.92277C60.2998 6.77802 60.5165 6.70091 60.7391 6.70624C60.8356 6.70028 60.9322 6.71464 61.0228 6.74838C61.1134 6.78213 61.1959 6.83451 61.265 6.90215C61.4815 7.12899 61.4712 7.53111 61.4712 7.79919V10.1294H63.1209V7.20116C63.1209 6.69593 63.0797 6.30412 62.6878 5.91231C62.5055 5.74318 62.2911 5.61226 62.0574 5.52726C61.8236 5.44226 61.5752 5.40491 61.3268 5.41739C61.0459 5.40392 60.766 5.4588 60.5109 5.57733C60.2559 5.69586 60.0335 5.87449 59.8627 6.09791V5.5205H58.213L58.2128 10.1294ZM65.667 3.25212L68.5545 10.1294H69.9465L72.8748 3.25212H70.9363L69.266 7.43831L67.6169 3.25212H65.667ZM73.2351 5.5205V10.1294H74.8848V5.5205H73.2351ZM73.132 3.60269C73.1315 3.7247 73.1551 3.8456 73.2016 3.95842C73.2481 4.07124 73.3164 4.17374 73.4027 4.26001C73.4889 4.34629 73.5914 4.41462 73.7043 4.46107C73.8171 4.50753 73.938 4.53118 74.06 4.53066C74.182 4.53118 74.3029 4.50753 74.4157 4.46107C74.5285 4.41462 74.631 4.34629 74.7173 4.26001C74.8036 4.17374 74.8719 4.07124 74.9184 3.95842C74.9648 3.8456 74.9885 3.7247 74.988 3.60269C74.9885 3.48068 74.9648 3.35978 74.9184 3.24696C74.8719 3.13415 74.8036 3.03164 74.7173 2.94537C74.631 2.8591 74.5285 2.79076 74.4157 2.74431C74.3029 2.69786 74.182 2.6742 74.06 2.67472C73.938 2.67427 73.8172 2.69797 73.7044 2.74446C73.5917 2.79094 73.4892 2.85928 73.403 2.94555C73.3168 3.03182 73.2485 3.1343 73.2021 3.24708C73.1556 3.35987 73.132 3.48073 73.1325 3.60269H73.132ZM75.5143 9.74793C76.068 10.1023 76.7126 10.2885 77.3699 10.2841C77.7514 10.2841 78.535 10.2428 79.0712 9.70669C79.2233 9.55825 79.3431 9.37994 79.4229 9.18297C79.5028 8.98601 79.541 8.77465 79.5352 8.56219C79.5425 8.22229 79.4167 7.89298 79.1846 7.64453C78.9841 7.48013 78.7527 7.35744 78.5041 7.28365L78.2051 7.20116C77.9473 7.12899 77.8133 7.12899 77.6586 7.06712C77.6024 7.05131 77.5528 7.01759 77.5175 6.97107C77.4821 6.92455 77.4629 6.86778 77.4627 6.80935C77.4623 6.76165 77.4758 6.71485 77.5014 6.6746C77.527 6.63435 77.5637 6.60237 77.6071 6.58251C77.7227 6.51564 77.8551 6.48343 77.9886 6.48972C78.2894 6.50742 78.5838 6.58452 78.8547 6.71655L79.4115 5.66485C78.9448 5.46802 78.4435 5.36636 77.937 5.36584C77.2565 5.36584 76.6379 5.56174 76.2873 5.92262C76.0062 6.22914 75.8515 6.63064 75.8542 7.0465C75.8453 7.34037 75.9528 7.62587 76.1532 7.84094C76.3732 8.05498 76.6543 8.19549 76.9575 8.24306L77.3905 8.34617C77.5456 8.36751 77.6937 8.42393 77.8236 8.51114C77.8526 8.53657 77.8752 8.56851 77.8896 8.60435C77.9039 8.64019 77.9096 8.67891 77.9061 8.71736C77.9097 8.75734 77.9041 8.79762 77.8898 8.83514C77.8755 8.87265 77.8529 8.90642 77.8236 8.93388C77.6997 9.01953 77.5515 9.06293 77.401 9.05761C77.1834 9.05244 76.9679 9.01419 76.7618 8.94419C76.5255 8.86623 76.303 8.75139 76.1025 8.60394L75.5143 9.74793ZM80.1748 5.5205V8.39721C80.1604 8.62037 80.1914 8.84413 80.2658 9.05501C80.3402 9.26588 80.4566 9.4595 80.6079 9.6242C81.1543 10.2119 81.9998 10.2834 82.6906 10.2834C83.3196 10.2834 84.1135 10.2216 84.6806 9.63383C85.0931 9.21126 85.124 8.78869 85.124 8.39654V5.5205H83.4743V8.0982C83.4822 8.21699 83.4653 8.33612 83.4245 8.44798C83.3838 8.55984 83.3201 8.66196 83.2376 8.74778C83.1585 8.81928 83.0654 8.8736 82.9643 8.90732C82.8631 8.94104 82.7561 8.95342 82.6499 8.94369C82.4425 8.95762 82.2372 8.89528 82.0725 8.7684C81.9869 8.68006 81.9206 8.57482 81.878 8.45942C81.8354 8.34401 81.8174 8.22098 81.825 8.0982V5.5205H80.1748ZM89.6195 5.96387C89.445 5.77158 89.2315 5.61877 88.9933 5.51564C88.755 5.4125 88.4974 5.36143 88.2378 5.36584C87.6211 5.35833 87.0257 5.59132 86.5778 6.01542C86.3423 6.26017 86.158 6.5495 86.0358 6.86644C85.9137 7.18338 85.856 7.52154 85.8664 7.86105C85.8573 8.1726 85.911 8.48278 86.0243 8.77316C86.1375 9.06353 86.308 9.32817 86.5256 9.55135C86.7346 9.78425 86.9908 9.97002 87.2771 10.0964C87.5634 10.2227 87.8734 10.2867 88.1863 10.2841C88.4604 10.2964 88.7335 10.243 88.9828 10.1283C89.2322 10.0137 89.4504 9.84104 89.6195 9.62488V10.1294H91.2692V5.5205H89.6195V5.96387ZM88.609 6.76811C88.8861 6.76652 89.1528 6.87391 89.3514 7.06712C89.4538 7.16372 89.535 7.28047 89.59 7.41001C89.645 7.53955 89.6726 7.67908 89.671 7.81981C89.6736 7.95822 89.6475 8.09566 89.5942 8.22344C89.541 8.35123 89.4618 8.46657 89.3617 8.56219C89.1663 8.7628 88.8994 8.87775 88.6193 8.88182C88.3429 8.87068 88.0795 8.76096 87.877 8.5725C87.7766 8.47435 87.6967 8.35731 87.6419 8.22812C87.587 8.09893 87.5583 7.96016 87.5573 7.81981C87.5637 7.5352 87.6823 7.26463 87.8873 7.06712C88.0807 6.8787 88.339 6.77167 88.609 6.76811ZM92.1972 2.61285V10.1294H93.8469V2.61285H92.1972ZM94.4757 9.74793C95.0296 10.1024 95.6743 10.2886 96.3318 10.2841C96.7133 10.2841 97.4969 10.2428 98.0331 9.70669C98.1852 9.55825 98.305 9.37994 98.3848 9.18297C98.4647 8.98601 98.5029 8.77465 98.4971 8.56219C98.5044 8.22229 98.3786 7.89298 98.1465 7.64453C97.946 7.48013 97.7146 7.35744 97.466 7.28365L97.167 7.20116C96.9092 7.12899 96.7752 7.12899 96.6205 7.06712C96.5643 7.05131 96.5147 7.01759 96.4794 6.97107C96.444 6.92455 96.4248 6.86778 96.4246 6.80935C96.4242 6.76165 96.4377 6.71485 96.4633 6.6746C96.4889 6.63435 96.5256 6.60237 96.569 6.58251C96.6846 6.51564 96.817 6.48343 96.9505 6.48972C97.2513 6.50742 97.5457 6.58452 97.8166 6.71655L98.3734 5.66485C97.9067 5.46802 97.4054 5.36636 96.8989 5.36584C96.2184 5.36584 95.5998 5.56174 95.2492 5.92262C94.9681 6.22914 94.8134 6.63064 94.8161 7.0465C94.8072 7.34037 94.9147 7.62587 95.1152 7.84094C95.3352 8.05498 95.6162 8.19549 95.9194 8.24306L96.3524 8.34617C96.5075 8.36751 96.6556 8.42393 96.7855 8.51114C96.8145 8.53657 96.8371 8.56851 96.8515 8.60435C96.8658 8.64019 96.8715 8.67891 96.868 8.71736C96.8716 8.75734 96.866 8.79762 96.8517 8.83514C96.8374 8.87265 96.8148 8.90642 96.7855 8.93388C96.6616 9.01953 96.5134 9.06293 96.3629 9.05761C96.1453 9.05244 95.9298 9.01419 95.7237 8.94419C95.4874 8.86623 95.2649 8.75139 95.0644 8.60394L94.4757 9.74793Z" fill="black"/>
</g>
<defs>
<clipPath id="clip0_47_162">
<rect width="98.4971" height="16" fill="white"/>
</clipPath>
</defs>
</svg>
