<svg width="15" height="20" viewBox="0 0 15 20" fill="none" xmlns="http://www.w3.org/2000/svg">
<path d="M14.9936 0.836407V19.1512C14.9936 19.6064 14.6246 19.9877 14.1572 19.9877H8.95426C8.49916 19.9877 8.11786 19.6187 8.11786 19.1512V0.836407C8.11786 0.381303 8.48686 0 8.95426 0H14.1572C14.6123 0.0123001 14.9936 0.381303 14.9936 0.836407Z" fill="url(#paint0_linear_19_410)"/>
<path d="M10.9347 5.8426V20H4.0589V5.8426C4.0589 5.3875 4.4279 5.0062 4.89531 5.0062H10.0982C10.5533 5.0062 10.9347 5.3752 10.9347 5.8426Z" fill="url(#paint1_linear_19_410)"/>
<path d="M0 10.8363V19.1635C0 19.6186 0.369003 19.9999 0.836407 19.9999H6.87575V10.8363C6.87575 10.3812 6.50675 9.99994 6.03935 9.99994H0.836407C0.381303 9.99994 0 10.3689 0 10.8363Z" fill="url(#paint2_linear_19_410)"/>
<defs>
<linearGradient id="paint0_linear_19_410" x1="6.98393" y1="0.0042926" x2="15.596" y2="18.8294" gradientUnits="userSpaceOnUse">
<stop stop-color="#E6AD10"/>
<stop offset="1" stop-color="#C87E0E"/>
</linearGradient>
<linearGradient id="paint1_linear_19_410" x1="3.68538" y1="5.19207" x2="10.9403" y2="19.702" gradientUnits="userSpaceOnUse">
<stop stop-color="#F6D751"/>
<stop offset="1" stop-color="#E6AD10"/>
</linearGradient>
<linearGradient id="paint2_linear_19_410" x1="1.19433" y1="9.51234" x2="5.18916" y2="19.2759" gradientUnits="userSpaceOnUse">
<stop stop-color="#F9E589"/>
<stop offset="1" stop-color="#F6D751"/>
</linearGradient>
</defs>
</svg>
