<svg width="19" height="20" viewBox="0 0 19 20" fill="none" xmlns="http://www.w3.org/2000/svg">
<g clip-path="url(#clip0_19_406)">
<path d="M12.6709 12.7813L11.431 14.0212V17.4777H8.48408V10.862C8.48408 10.0467 7.82166 9.38429 7.00637 9.38429H5.4862V5.79193C5.4862 5.68153 5.57962 5.58811 5.69002 5.58811H11.2272C11.3376 5.58811 11.431 5.68153 11.431 5.79193V10.4119L12.7049 9.13801V5.79193C12.7049 4.97665 12.0425 4.31423 11.2272 4.31423H9.69002V1.47771C9.69002 1.3673 9.78344 1.27389 9.89384 1.27389H15.431C15.5414 1.27389 15.6348 1.3673 15.6348 1.47771V8.87474L16.9087 10.1486V1.47771C16.9087 0.66242 16.2463 0 15.431 0H9.89384C9.07856 0 8.41614 0.66242 8.41614 1.47771V4.31423H5.68153C4.86624 4.31423 4.20382 4.97665 4.20382 5.79193V9.3758H1.47771C0.66242 9.3758 0 10.0382 0 10.8535V17.2654C0 18.0807 0.66242 18.7431 1.47771 18.7431H12.6709V12.7813ZM1.47771 17.4692C1.3673 17.4692 1.27389 17.3758 1.27389 17.2654V10.8535C1.27389 10.7431 1.3673 10.6497 1.47771 10.6497H7.01486C7.12527 10.6497 7.21868 10.7431 7.21868 10.8535V17.4692H1.47771Z" fill="#424240"/>
<path d="M14.31 8.44162L9.57959 13.172L10.4798 14.0722L13.673 10.879V20H14.9469V10.879L18.0891 14.0127L18.9894 13.1125L14.31 8.44162Z" fill="#1E8BCD"/>
</g>
<defs>
<clipPath id="clip0_19_406">
<rect width="18.9894" height="20" fill="white"/>
</clipPath>
</defs>
</svg>
