<svg width="67" height="21" viewBox="0 0 67 21" fill="none" xmlns="http://www.w3.org/2000/svg">
<path d="M67 0H0V20.1H67V0Z" fill="#FF0000"/>
<path d="M32.8548 12.0116C33.0564 12.1671 33.258 12.2708 33.4654 12.3227C33.6728 12.3745 33.9148 12.4033 34.2028 12.4033C34.8366 12.4033 35.453 12.2593 36.0464 11.977V13.1292C35.4184 13.3712 34.7732 13.4979 34.0991 13.4979C33.091 13.4979 32.3305 13.2041 31.8063 12.6165C31.282 12.0289 31.017 11.182 31.017 10.0701C31.017 8.95826 31.282 8.10564 31.8063 7.52378C32.3305 6.93617 33.0967 6.64236 34.0991 6.64236C34.7732 6.64236 35.4242 6.76334 36.0464 7.01106V8.16901C35.4472 7.8752 34.8423 7.73118 34.2259 7.73118C34.2144 7.73118 34.2086 7.73118 34.2028 7.73118C33.5922 7.73118 33.1198 7.88672 32.7741 8.20358C32.4285 8.52043 32.2556 9.13685 32.2556 10.0644C32.2556 10.554 32.3075 10.9631 32.4054 11.2857C32.5034 11.6141 32.6531 11.856 32.8548 12.0116ZM41.1621 13.3942V9.43066C41.1621 8.77967 41.0238 8.34184 40.7531 8.12868C40.4765 7.90977 40.1194 7.80031 39.6815 7.80031C39.14 7.80031 38.5985 7.90401 38.0454 8.11716V13.3884H36.8356V4.19971H38.0454V6.96497C38.61 6.74605 39.1976 6.63659 39.7967 6.63659C40.6206 6.63659 41.26 6.88431 41.7151 7.374C42.1703 7.86368 42.4007 8.56652 42.4007 9.47099V13.3827L41.1621 13.3942ZM48.5995 11.7696C48.5707 11.9079 48.5016 12.0922 48.3979 12.3111C48.2942 12.5301 48.1501 12.7259 47.9658 12.8872C47.7814 13.0543 47.5107 13.1926 47.1477 13.3136C46.7848 13.4345 46.3642 13.4921 45.8861 13.4921C45.3964 13.4921 44.9701 13.4288 44.6014 13.3078C44.2327 13.181 43.9562 13.037 43.7718 12.8757C43.5875 12.7086 43.4377 12.5128 43.3282 12.2881C43.2188 12.0634 43.1496 11.8733 43.1266 11.7293C43.0978 11.5795 43.0862 11.4355 43.0862 11.2915C43.0862 10.6347 43.3628 10.122 43.9158 9.75328C44.4689 9.38458 45.2293 9.20022 46.2029 9.20022C46.6177 9.20022 47.0152 9.22903 47.407 9.28088C47.3782 8.72206 47.2284 8.3188 46.9519 8.07683C46.6753 7.83487 46.2202 7.71389 45.5865 7.71389C45.0104 7.71389 44.3997 7.82335 43.7545 8.04803V7.0053C44.3825 6.7691 45.045 6.64812 45.7536 6.64812C46.6753 6.64812 47.3897 6.89008 47.8909 7.36824C48.3921 7.8464 48.6456 8.53771 48.6456 9.43066V11.3491C48.6398 11.4873 48.6283 11.6314 48.5995 11.7696ZM47.407 10.2545C47.0901 10.2026 46.7041 10.1738 46.2548 10.1681C46.0762 10.1681 45.8918 10.1853 45.7017 10.2142C45.5059 10.2487 45.2985 10.2948 45.0738 10.3639C44.8491 10.4331 44.6648 10.5483 44.5207 10.7038C44.3767 10.8651 44.3018 11.0553 44.3018 11.2742C44.3018 12.0231 44.8318 12.3976 45.8918 12.3976C45.8976 12.3976 45.9034 12.3976 45.9091 12.3976C46.9058 12.3976 47.407 12.0404 47.407 11.3203V10.2545ZM50.7483 8.04227V13.3942H49.5385V7.31063C50.6446 6.86703 51.7162 6.64812 52.7647 6.64812V7.76574C52.1022 7.77151 51.4281 7.86368 50.7483 8.04227ZM56.3077 12.4033C56.3134 12.4033 56.3134 12.4033 56.3192 12.4033C56.6188 12.4033 56.878 12.3399 57.0911 12.2074V13.3078C56.7916 13.4288 56.4862 13.4921 56.1867 13.4921C56.1752 13.4921 56.1694 13.4921 56.1521 13.4921C55.9908 13.4921 55.8237 13.4749 55.6394 13.4345C55.4608 13.3942 55.2419 13.3193 54.9884 13.2041C54.7349 13.0889 54.5275 12.893 54.3662 12.605C54.2049 12.3227 54.1185 11.9712 54.1185 11.5507V7.78303H52.9663V6.74029H54.1185V4.7758H55.3283V6.74605H57.0911V7.78879H55.3283V11.6314C55.3283 12.1441 55.6567 12.4033 56.3077 12.4033ZM59.24 9.05044C59.4704 9.17142 59.7527 9.28088 60.0811 9.37305C60.4095 9.46523 60.7378 9.58045 61.0662 9.71295C61.3946 9.84545 61.6769 10.0644 61.9131 10.3755C62.1493 10.6866 62.2645 11.0725 62.2645 11.5277C62.2645 12.0634 62.0629 12.5243 61.6654 12.916C61.2678 13.302 60.6457 13.4979 59.8046 13.4979C59.096 13.4979 58.4623 13.3424 57.8977 13.0313V11.9194C58.4738 12.242 59.0844 12.4033 59.7297 12.4033C59.7354 12.4033 59.747 12.4033 59.7585 12.4033C60.179 12.4033 60.5016 12.3284 60.7263 12.1729C60.951 12.0173 61.0605 11.8215 61.0605 11.5853C61.0605 11.3145 60.9452 11.0956 60.7148 10.9285C60.4844 10.7614 60.2021 10.6347 59.8679 10.5368C59.5338 10.4446 59.2054 10.3409 58.877 10.2257C58.5487 10.1105 58.2664 9.92034 58.0359 9.65534C57.8055 9.39034 57.6903 9.04468 57.6903 8.61837C57.6903 8.07108 57.8862 7.59867 58.2779 7.21269C58.6697 6.82671 59.263 6.63659 60.0696 6.63659C60.6687 6.63659 61.2563 6.78062 61.8382 7.07443V8.12868C61.2678 7.86368 60.7263 7.73118 60.2194 7.73118C59.3437 7.73118 58.9059 8.01346 58.9059 8.57804C58.8886 8.77391 59.0096 8.9237 59.24 9.05044Z" fill="white"/>
<path d="M16.4533 11.3375C16.4533 12.8008 15.2493 14.0279 13.7629 14.0279C13.7572 14.0279 13.7629 11.3145 13.7629 11.3145C13.7917 11.3433 16.4533 11.3317 16.4533 11.3375Z" fill="white"/>
<path d="M29.306 13.3941V9.03885C29.306 8.65863 29.2138 8.34753 29.0295 8.11709C28.8451 7.8809 28.4822 7.76568 27.9407 7.76568C27.3588 7.76568 26.7654 7.88666 26.1663 8.13438C26.27 8.41666 26.3218 8.73352 26.3218 9.08494C26.3218 9.09646 26.3218 9.11374 26.3218 9.12526V13.3999H25.112V9.05613C25.112 8.66439 25.0083 8.35905 24.8067 8.13438C24.5993 7.9097 24.196 7.79448 23.5854 7.79448C23.113 7.79448 22.6291 7.86361 22.1394 7.99612V13.3999H20.9296V10.7268C20.4341 11.3087 19.7486 11.735 18.9478 11.902C18.6021 11.9769 18.2622 11.9942 17.9281 11.9712C17.6631 13.711 16.3554 15.1858 14.5407 15.5718C12.628 15.9808 10.7442 15.0418 9.85124 13.3999H4.93713V12.2707L8.30154 7.87513H5.01203V6.75751H9.85124V7.86361L6.49836 12.2477H9.41916C9.41916 12.2362 9.4134 12.2247 9.4134 12.2131C8.92372 9.8569 10.4158 7.54676 12.7548 7.05132C13.4576 6.90153 14.1604 6.9361 14.8114 7.11469C15.2262 5.97402 16.1941 5.06955 17.4557 4.79878C19.207 4.42432 20.9296 5.40368 21.5575 7.02827C22.2431 6.76903 22.9459 6.64229 23.6718 6.64229C24.3861 6.64229 24.9795 6.80935 25.4404 7.14349C26.27 6.80935 27.0823 6.64229 27.8658 6.64229C28.7011 6.64229 29.3521 6.8612 29.8187 7.29904C30.2854 7.73687 30.5216 8.34753 30.5216 9.13102V13.4057L29.306 13.3941ZM18.2507 5.81847C16.8393 5.81847 15.6929 6.9649 15.6929 8.37634C15.6929 8.50884 15.7044 8.64134 15.7217 8.76808C15.1801 8.35329 14.5003 8.10557 13.7629 8.10557C11.977 8.10557 10.531 9.55158 10.531 11.3375C10.531 13.1234 11.977 14.5694 13.7629 14.5694C15.5488 14.5694 16.9948 13.1234 16.9948 11.3375C16.9948 11.0667 16.9603 10.7959 16.8969 10.5425C17.2886 10.7844 17.7495 10.9284 18.245 10.9284C19.6564 10.9284 20.8028 9.78201 20.8028 8.37058C20.8028 6.9649 19.6622 5.81847 18.2507 5.81847Z" fill="white"/>
<path d="M63.0422 6.79211C62.6101 6.79211 62.2529 7.14353 62.2529 7.58137C62.2529 8.01344 62.6043 8.37062 63.0422 8.37062C63.4743 8.37062 63.8314 8.0192 63.8314 7.58137C63.8314 7.14353 63.48 6.79211 63.0422 6.79211ZM63.0422 8.20931C62.6965 8.20931 62.4142 7.92702 62.4142 7.58137C62.4142 7.23571 62.6965 6.95342 63.0422 6.95342C63.3878 6.95342 63.6701 7.23571 63.6701 7.58137C63.6701 7.92702 63.3878 8.20931 63.0422 8.20931Z" fill="white"/>
<path d="M63.2553 7.63321C63.2323 7.61017 63.2092 7.59288 63.1747 7.58712C63.2265 7.56984 63.2668 7.5468 63.2957 7.51223C63.3245 7.47767 63.336 7.43158 63.336 7.37973C63.336 7.29908 63.3129 7.24147 63.2611 7.2069C63.2092 7.17234 63.1286 7.14929 63.0249 7.14929H62.7023V7.97311H62.9154V7.66202H62.973C63.0076 7.66202 63.0364 7.66778 63.0537 7.68506C63.0767 7.70234 63.094 7.73115 63.1171 7.77148L63.2208 7.97887H63.4454L63.3302 7.74267C63.3014 7.69082 63.2784 7.65625 63.2553 7.63321ZM63.094 7.48919C63.0767 7.50647 63.0422 7.51223 62.9961 7.51223H62.9097V7.29908H63.0018C63.0479 7.29908 63.0767 7.30484 63.0998 7.32212C63.1171 7.3394 63.1286 7.36821 63.1286 7.40277C63.1228 7.44886 63.1171 7.4719 63.094 7.48919Z" fill="white"/>
</svg>
